<?xml version="1.0" encoding="UTF-8" standalone="no"?>
<!DOCTYPE svg PUBLIC "-//W3C//DTD SVG 1.1//EN" "http://www.w3.org/Graphics/SVG/1.1/DTD/svg11.dtd">
<svg width="100%" height="100%" viewBox="0 0 1024 1024" version="1.1" xmlns="http://www.w3.org/2000/svg" xmlns:xlink="http://www.w3.org/1999/xlink" xml:space="preserve" xmlns:serif="http://www.serif.com/" style="fill-rule:evenodd;clip-rule:evenodd;stroke-linejoin:round;stroke-miterlimit:2;">
    <rect id="Prancheta1" x="0" y="0" width="1024" height="1024" style="fill:none;"/>
    <g id="Prancheta11" serif:id="Prancheta1">
        <g transform="matrix(2.09135,0,0,2.09135,-33.508783,128.610695)">
            <path d="M450.491,99.344C456.631,102.889 475.036,116.923 483.114,128.757C506.098,162.431 505.577,222.221 371.519,253.579C370.716,253.767 364.445,254.295 361.639,257.615C360.397,259.084 355.587,264.777 369.781,280.243C372.226,282.907 383.874,291.698 374.519,287.436C354.975,278.532 274.387,246.587 265.645,243.121C264.975,242.855 256.993,240.424 260.748,238.979C319.958,216.201 401.794,168.152 416.271,157.159C420.325,154.081 421.851,150.966 421.973,154.363C422.002,155.192 395.098,195.711 386.163,202.2C385.854,202.424 379.291,207.191 383.509,206.158C384.855,205.829 384.657,205.38 399.292,199.018C416.436,191.564 497.947,158.116 461.096,110.832C458.939,108.065 455.78,106.161 451.144,101.59C450.926,100.841 450.708,100.092 450.491,99.344Z" style="fill:rgb(0,128,242);"/>
            <path d="M224.209,47.341C246.645,2.012 281.92,17.629 292.337,27.675C300.696,35.738 299.265,36.863 343.836,122.327C368.272,169.183 368.424,169.074 369.739,172.404C370.398,174.072 370.413,175.252 351.289,185.119C334.074,194.001 321.178,202.116 319.725,201.136C318.925,200.597 273.209,109.204 264.491,93.562C247.927,60.044 238.652,34.072 225.5,47.969L224.209,47.341Z" style="fill:rgb(0,121,231);"/>
            <path d="M224.209,47.341L225.5,47.969C238.652,34.072 247.927,60.044 264.491,93.562C263.696,94.193 263.432,93.815 262.979,94.761C261.993,96.819 262.022,96.719 260.95,98.741C214.824,185.682 216.175,186.35 211.374,193.425C209.705,195.884 175.128,213.618 142.558,225.665C133.061,229.178 126.577,232.564 129.36,228.434C133.744,221.928 154.737,180.872 156.871,176.698C190.084,111.743 191.201,112.436 224.209,47.341Z" style="fill:rgb(0,104,218);"/>
            <path d="M235.287,207.394L234.5,207.023C233.037,206.918 232.845,206.568 231.998,207.794C230.122,210.508 219.282,226.189 205.081,239.032C202.891,241.013 189.06,253.521 176.893,262.876C174.963,262.987 174.939,262.892 174.809,262.996C135.726,294.26 68.168,319.809 39.86,292.131C13.508,266.365 36.157,222.215 37.807,218.68C39.733,214.553 40.341,218.28 40.287,218.472C39.772,220.315 36.289,232.784 41.758,242.353C64.468,282.087 147.87,254.786 218.186,206.055C244.357,187.919 247.035,182.114 248.132,183.684C248.286,183.904 236.331,205.506 235.287,207.394Z" style="fill:rgb(0,127,242);"/>
            <path d="M389.046,294.74C387.107,292.833 363.721,264.413 373.458,262.317C400.442,256.508 412.772,249.322 414.194,251.71C418.53,258.994 417.608,259.369 463.321,345.595C463.386,345.718 466.221,349.467 463.508,349.539C414.335,350.857 407.281,348.531 402.654,347.005C375.486,338.046 370.141,308.218 356.16,286.683C356.025,286.475 353.167,282.073 356.468,283.605C371.613,290.635 372.123,289.171 387.512,295.689C388.887,296.272 388.71,295.581 389.046,294.74Z" style="fill:rgb(1,88,203);"/>
            <path d="M235.287,207.394C189.604,292.209 190.076,292.453 185.937,299.735C182.75,305.343 160.383,344.696 118.499,343.933C77.147,343.18 77.158,344.385 73.574,344.117C73.193,344.088 71.713,343.823 74.311,339.4C86.054,316.723 85.88,316.682 86.936,314.733C88.451,311.935 92.855,312.894 111.303,306C151.96,290.808 176.614,263.397 176.893,262.876C189.06,253.521 202.891,241.013 205.081,239.032C219.282,226.189 230.122,210.508 231.998,207.794C232.845,206.568 233.037,206.918 234.5,207.023L235.287,207.394Z" style="fill:rgb(1,85,197);"/>
            <path d="M107.441,249.075C32.705,262.335 24.823,206.604 89.162,159.061C122.611,134.345 150.901,123.002 166.5,115.498C183.754,107.198 164.13,118.757 163.819,118.911C155.026,123.26 91.763,154.55 69.826,197.659C52.093,232.508 86,252.443 142.372,235.05C143.223,234.787 165.032,225.765 158.3,231.269C158.023,231.496 139.2,239.936 129.395,243.188C118.534,246.791 118.606,246.858 107.441,249.075Z" style="fill:rgb(2,131,245);"/>
            <path d="M416.962,180.699C417.278,180.356 468.735,145.942 435.998,108.049C412.277,80.592 357.852,71.779 350.478,70.585C349.88,70.488 338.863,68.704 343.528,67.557C343.748,67.502 400.421,73.347 432.343,92.745C460.46,109.83 479.866,141.71 429.747,173.942C418.273,181.321 418.027,182.455 417.574,181.406C417.451,181.12 417.086,180.985 416.962,180.699Z" style="fill:rgb(4,128,240);"/>
            <path d="M191.435,264.053C189.422,266.227 189.07,268.714 187.581,266.084C186.782,264.674 184.951,264.235 186.58,263.956C189.332,263.483 189.279,263.989 191.435,264.053Z" style="fill:rgb(1,86,193);"/>
        </g>
    </g>
</svg>
